<?xml version="1.0" encoding="UTF-8" standalone="no"?>
<!-- Generator: Adobe Illustrator 19.1.0, SVG Export Plug-In . SVG Version: 6.00 Build 0)  -->
<svg xmlns:rdf="http://www.w3.org/1999/02/22-rdf-syntax-ns#" xmlns="http://www.w3.org/2000/svg" xml:space="preserve" viewBox="0 0 1224.1562 89.84375" height="100%" width="100%" version="1.1" y="0px" x="0px" xmlns:cc="http://creativecommons.org/ns#" xmlns:dc="http://purl.org/dc/elements/1.1/"><metadata><rdf:RDF><cc:Work rdf:about=""><dc:format>image/svg+xml</dc:format><dc:type rdf:resource="http://purl.org/dc/dcmitype/StillImage"/><dc:title/></cc:Work></rdf:RDF></metadata><style type="text/css">
	.st0{fill:#E95810;stroke:#E95810;stroke-width:0.25;stroke-miterlimit:10;}
	.st1{fill:#E95810;stroke:#E95810;stroke-miterlimit:10;}
</style><g stroke="#e95810" fill="#e95810" stroke-miterlimit="10" transform="translate(0.125,-21.687503)"><polygon class="st0" points="1061.6,102.9,1061.6,22.9,1062.6,22.9,1062.6,103.9,1055.6,103.9,1055.6,102.9" stroke-width="0.25"/><path d="m945.9,103.1-1-0.1,2.4-26,4.4-0.4c4-2.5,6.1-6.6,6.9-8.3l0.1-0.3c0.8-1.6,4.1-4,4.7-4.4,0.2-0.3,1.4-1.9,1.8-2.8,0.3-0.6,1-1.8,1.7-2.9,0.4-0.7,0.8-1.3,0.9-1.6,0.1-0.2,0.4-0.7,5.4-5.1-0.8-0.9-1.2-1.8-1.1-2.7,0.2-1.3,1.5-2.1,1.8-2.3l0.4-0.4h3.8l0.1,0.3s0.1,0.2,0.2,0.4c0.9,0.2,1.5,0.6,1.7,1.3,0.5,1.2-0.3,2.8-0.8,3.6,0.1,0,0.2,0.1,0.3,0.2,0.9,0.5,1.4,0.9,1.7,1.1,0.4-0.4,1-0.8,2-0.3l0.2,0.1,0.1,0.2c0.4,0.7,0.1,1.4-0.3,1.8,0.6,0.9,2.3,3.2,2.8,4.5,0.6,1.5,4.3,6.1,5.5,6.7,1,0.5,2.1,2.5,3.5,5,0.5,0.9,1,1.7,1.2,2.1,0.7,0.8,3.6,3.3,4.2,3.8h4.2l2.9,24-1,0.1-2.8-23.2h-3.7l-0.1-0.1c-0.1-0.1-3.7-3-4.5-4.1-0.3-0.4-0.8-1.2-1.3-2.2-0.9-1.7-2.4-4.2-3.1-4.6-1.6-0.8-5.3-5.7-6-7.2-0.6-1.5-2.9-4.6-2.9-4.6l-0.3-0.4,0.3-0.3s0.5-0.5,0.4-0.8c-0.3-0.1-0.6-0.1-0.9,0.4l-0.5,0.8-0.4-0.8c-0.3-0.2-1.5-1-2-1.2-0.2-0.1-0.4-0.2-0.4-0.3-0.2-0.1-0.3-0.3-0.4-0.3l-0.3-0.3,0.2-0.3c0.4-0.5,1.3-2.1,0.9-3-0.1-0.4-0.5-0.6-1.1-0.7-0.3,0-0.5-0.2-0.7-0.7h-2.7l-0.3,0.2s-1.2,0.6-1.3,1.6c-0.1,0.7,0.3,1.4,1.2,2.2l0.4,0.4-0.4,0.4s-0.1,0.1-0.2,0.1c-4.8,4.2-5.4,5-5.4,5.1-0.2,0.3-0.5,0.9-1,1.6-0.6,1-1.3,2.2-1.6,2.8-0.5,1.1-1.9,3-1.9,3l-0.1,0.1c-1,0.7-3.8,2.8-4.4,4l-0.1,0.3c-0.9,1.8-3,6.1-7.4,8.8l-0.1,0.1-3.8,0.3-2,25.3z" stroke-width="0.25" class="st0"/><path d="m949.6,100.8-1,0,0.9-20,0.4,0c0.9-0.1,2.4-0.3,2.7-0.4,0.5-0.2,4.7-2.8,5.6-4.7,0.9-2.1,2.3-4,4.1-5.5,1.1-0.9,1.5-1.6,2.1-2.6,0.3-0.5,0.6-1,1.1-1.6,1.1-1.6,2.4-4.2,2.8-4.9-0.1-0.3-0.3-0.9,0-1.4,0.4-0.6,1.3-0.6,1.7-0.5,0.5-0.3,1.7-0.9,2.3-1.2v-2h4.2v2c1,0.8,4.8,4,5.4,5.1,0.7,1.4,4.8,7.2,5.7,7.6,1.4,0.7,3.8,4.9,4.3,5.9,0.6,1.3,5,3,6.1,3.3,0.4,0.1,1.2,0.3,2.4,20.6l-1,0.1c-0.4-7-1.2-18.3-1.8-19.7-1.1-0.4-5.7-2.1-6.5-3.7-1-2-3-5-3.8-5.5-1.3-0.6-5.6-7-6.1-8.1-0.4-0.8-3.5-3.5-5.3-5l-0.2-0.1v-1.5h-2.2v1.6l-0.3,0.1s-2.2,1.2-2.7,1.5l-0.1,0.1h-0.2c-0.7-0.1-0.9,0-0.9,0.1-0.1,0.1,0,0.4,0.1,0.6l0.1,0.2-0.1,0.2c-0.1,0.1-1.6,3.4-3,5.3-0.4,0.6-0.8,1.1-1,1.6-0.7,1-1.2,1.8-2.3,2.8-1.6,1.4-2.9,3.1-3.8,5.1-1,2.3-5.5,5-6.1,5.3-0.5,0.2-1.8,0.4-2.6,0.5l-1,18.8z" stroke-width="0.25" class="st0"/><path d="m976.9,30.8h-1v-2.1c0-0.4-0.1-0.8-0.4-1.1s-0.7-0.4-1.2-0.3c-0.9,0.1-0.9,1.7-0.9,1.8v1.5h-1v-1.5c0-0.9,0.3-2.6,1.8-2.8,1-0.1,1.6,0.2,2,0.6,0.5,0.4,0.7,1.1,0.7,1.8v2.1z" stroke-width="0.25" class="st0"/><rect stroke-width="0.25" width="1" y="23.9" x="974.2" height="2.5" class="st0"/><rect stroke-width="0.25" width="2.5" y="24.7" x="973.5" height="1" class="st0"/><polygon class="st0" points="948,56.8,948,53.8,949,53.8,949,57.8,948.3,57.8,947.7,75.4,946.7,75.4,947.3,56.8" stroke-width="0.25"/><polygon class="st0" points="1001.4,54.4,1002.4,54.3,1002.7,56.4,1003.5,56.9,1004.9,75.9,1003.9,75.9,1002.6,57.5,1001.8,57" stroke-width="0.25"/><path d="m943.9,75.9h-7.5l1-16.8c0.1-0.1,1.4-2.5,4.4-2.5,0.2,0,3.3,0.3,3.4,2.6,0,2.1-0.6,13.7-0.6,14.2l-1-0.1c0-0.1,0.6-12.1,0.6-14.2-0.1-1.3-2.4-1.6-2.5-1.6-2.1,0-3.2,1.5-3.4,1.9l-0.9,15.5h6.5v1z" stroke-width="0.25" class="st0"/><path d="m935.6,101.8-1-0.1,1.4-18.5c0.1-0.1,1.4-2.7,4.1-2.7s3.7,1.8,3.7,2.6c0,0.5-0.8,17.5-0.8,18.2h-1c0.3-6.1,0.8-17.8,0.8-18.2,0-0.3-0.5-1.6-2.7-1.6-1.9,0-3,1.6-3.2,2l-1.3,18.3z" stroke-width="0.25" class="st0"/><path d="m1016,99.7-2.2-16.8s-0.8-2.3-3.3-2.3c-0.1,0-2,0.3-1.7,2.4,0.3,2.7,1.8,15.7,1.8,15.7l-1,0.1s-1.5-13-1.8-15.7c-0.3-2.5,1.6-3.4,2.7-3.6,2.7,0,4,2,4.4,3.1l2.2,16.9-1.1,0.2z" stroke-width="0.25" class="st0"/><path d="m1013.6,75.2-2.2-16.8s-0.8-2.3-3.3-2.3c-0.1,0-2,0.3-1.7,2.4,0.3,2.7,1.8,15.7,1.8,15.7l-1,0.1s-1.5-13-1.8-15.7c-0.3-2.5,1.6-3.4,2.7-3.6,2.7,0,4,2,4.4,3.1l2.2,16.9-1.1,0.2z" stroke-width="0.25" class="st0"/><path d="m967.5,54.1c-1.7-3-1.2-6.3,1.3-8.8,2.5-2.6,7.3-4.3,11.2-2.2,2.8,1.5,4.7,3.8,5.2,6.5l-1,0.2c-0.5-2.4-2.2-4.5-4.7-5.8-3.5-1.8-7.8-0.3-10.1,2-2.2,2.2-2.6,5-1.1,7.6l-0.8,0.5z" stroke-width="0.25" class="st0"/><path d="m985.6,54.5c-0.4-1.7-1.2-2.8-2.3-3.3-1.6-0.8-3.4,0-3.4,0l-0.4-0.9c0.1,0,2.2-1,4.3,0,1.4,0.6,2.3,2,2.8,4l-1,0.2z" stroke-width="0.25" class="st0"/><polygon class="st0" points="819.2,90.5,817.6,91.9,820.7,111.3,819.8,111.4,816.5,91.5,818.6,89.8" stroke-width="0.25"/><path d="m744.5,102.7-0.5-0.9c15.4-8.1,49.1-16.3,49.4-16.4l0.2,1c-0.3,0.1-33.8,8.3-49.1,16.3z" stroke-width="0.25" class="st0"/><rect stroke-width="0.25" transform="matrix(0.9775,0.2111,-0.2111,0.9775,36.6494,-145.0326)" width="52.8" y="98.7" x="671.3" height="1" class="st0"/><path d="m746.6,99.3-1-0.3c3.1-9.4,18.1-26.4,18.8-27.1l0.2-0.2,0.3,0.1c2.2,0.6,19.8,13.2,21.8,14.6l-0.6,0.8c-7.4-5.3-18.8-13.3-21.2-14.3-1.8,2.1-15.5,17.8-18.3,26.4z" stroke-width="0.25" class="st0"/><rect stroke-width="0.25" transform="matrix(0.9248,0.3805,-0.3805,0.9248,89.5493,-276.2982)" width="1" y="75.6" x="743.2" height="25.5" class="st0"/><rect stroke-width="0.25" transform="matrix(0.02746066,0.9996,-0.9996,0.02746066,773.4514,-727.6245)" width="23.2" y="33.2" x="749.1" height="1" class="st0"/><rect stroke-width="0.25" width="6.1" y="30.7" x="757.6" height="1" class="st0"/><path d="M1089.5,109.4" stroke-width="0.25" class="st0"/><path d="M823.1,42.4" stroke-width="0.25" class="st0"/><path d="m919.9,108h-0.2c-1.4-0.1-2.8-1.4-4.1-3.7-0.6-1.1-1.4-1.7-2.3-1.8-2.4-0.3-5.1,2.5-5.1,2.5-1.2,1.4-3.8-0.4-4.7-1-0.8-0.5-2.1,0.2-2.6,0.5l-0.8,0.6,0.2-14.9c0-0.2,1.6-20.8,1.7-24.1,1.2-7.6-0.9-15.5-1.2-16.3-3.1-3.2-6.2-4.5-9-3.7-0.3,0.1-0.5,0.1-0.8-0.1-0.9-1.3-5.7-3.5-6.2-3.6h-0.1v-0.1c-2.3-1.4-1.7-5-1.6-5.2v-0.3l0.2-0.1c1.4-0.6,3.2-1.8,4-3.7,0-0.1,0-0.1,0.1-0.1,1.1-2.5-2.9-4.6-3-4.7-2.5-1.2-7.2-2.5-15.2-1.8-0.2,0-0.3,0.1-0.4,0-10.1,1.2-10.6,6.2-10.6,7.1,0.9,1.5,2.1,2.4,3,2.8l-0.4-1,1.8,1.8v0.1c0.5,1.5-0.1,3.5-0.4,4.5h1.9l-2.4,1c-3.7,1.5-6.2,3.7-6.7,4.3v0.3h-0.5-0.2c-5.6,0-8.4,2.2-9,2.9l-0.2,0.3c-1.9,2.3-1.8,16-1.7,21.1v35.5l-0.7-0.4s-0.6-0.3-1.3-0.1l-0.4,0.1c-0.4,0.1-0.5,0.1-0.9,0-0.1,0-0.2-0.1-0.3-0.1-0.3-0.1-0.5-0.2-0.7-0.2-0.2-0.1-0.4-0.1-0.7-0.2-0.4-0.1-0.8,0.3-0.8,0.3l-0.4,0.4-0.4-0.4c0-0.1-1.1-1.3-2.1-3.5-0.5-1.2-0.8-1.6-0.9-1.8-0.4,0-0.7,0-1,0.1-0.5,0.1-1.2,0.3-1.7-0.5-0.5-0.9-1.7-7.5-1.9-8.8l-0.1-0.3,1.3-1.1v-0.5c-2.1-0.9-5.6-0.8-10.7,0.4-0.6,0.1-0.7,0.2-1,0l-0.2-0.2,0.1-0.3c0.7-1.8,0.4-3,0.3-3.3-5.2-4.4-24.8-0.3-25-0.2h-0.1-0.1c-12.5-3.1-26.6-12.8-28-25-0.4-3.3-0.2-6.3,0-9.5l0.1-1.1c0-0.8,0.7-2.5,0.9-3.1-0.2-0.2-1-0.6-1.7-0.8l-0.4-0.1v-0.4-0.2c-3-1-5.8-0.3-6.6,0l1.2,0.9-1.7-0.1c-0.4,0-1.1,0.4-1.7,0.9,0.3,0.7,0.9,2.3,1,2.7,0,0.1,0.8,5.6,0.5,7.2h0.1c0.1,10.3-4.8,18.3-13.9,22.5-11,5.1-23.8,8.3-40.3,9.9-7.8,0.8-18.1,0.5-18.2,0.5s-8-1.3-9.4-1.5c-0.8-0.1-1.3,0.4-1.6,0.7,0.4,0.2,1,0.4,1.6,0.6l0.4,0.1v0.4s-0.1,1-0.1,1.1,0,0.1-1.1,6c-0.5,2.7-1.1,5.7-1.1,5.9v0.3l-0.2,0.1c-0.1,0.1-10.6,6.4-20,0.8-9-5.4-25-7.4-33.5-1.7l-0.1,0.1h-619.9v-1h619.3c8.9-5.9,25-3.9,34.4,1.7,8.2,4.9,17.3,0.1,18.8-0.7,0.1-0.5,0.4-1.9,1.1-5.7,0.5-2.7,1.1-5.7,1.1-5.8,0,0,0-0.4,0.1-0.7-2-0.7-2.1-1-2.1-1.4,0.1-0.6,1.2-1.9,2.8-1.7,1.4,0.2,9,1.4,9.3,1.5,0.1,0,10.2,0.3,18-0.5,16.4-1.6,29.1-4.8,39.9-9.8,8.7-4.1,13.5-11.8,13.4-21.6v-0.3c-0.1-1.3-0.4-6-0.5-6.5-0.2-0.5-1.2-3.1-1.2-3.1l-0.1-0.3,0.3-0.2c0.2-0.2,1.2-1,2-1.2,0-0.2,0.1-0.4,0.1-0.5l0.1-0.2,0.2-0.1c0.2-0.1,3.8-1.5,7.9,0l0.2,0.1c0.1,0.1,0.2,0.3,0.2,0.6,0.8,0.2,2.1,0.8,2.1,1.6v0.1,0.1c-0.2,0.6-0.8,2.3-0.9,2.9l-0.1,1.1c-0.2,3.2-0.4,6.2,0,9.4,1.4,11.6,15,21.1,27.1,24.1,1.8-0.4,20.6-4.1,25.9,0.6l0.1,0.1c0,0.1,0.6,1.3,0.1,3.3,5.3-1.2,9.1-1.3,11.3-0.1l0.2,0.1,0.1,0.2v1.2,0.2l-1.2,1.1c0.6,3.2,1.5,7.7,1.8,8.2,0.1,0.1,0.1,0.2,0.6,0,0.4-0.1,0.8-0.2,1.4-0.1,0.4,0,0.8,0.5,1.7,2.4,0.6,1.3,1.2,2.3,1.6,2.8,0.4-0.2,0.9-0.4,1.4-0.2,0.3,0.1,0.5,0.2,0.7,0.2,0.2,0.1,0.4,0.1,0.7,0.2,0.1,0,0.2,0.1,0.3,0.1h0.1l0.2-0.1,0.5-0.1c0.5-0.1,1-0.1,1.3,0v-34c-0.1-1.9-0.5-18.4,1.8-21.6,0,0,0-0.1,0.1-0.1,0.6-0.9,3.6-3.6,10-3.5,0.9-1,3.5-3.1,6.8-4.4v-0.1c0.2-0.7,0.8-2.8,0.5-4.2-1-0.4-3.1-1.6-4.4-3.8l-0.1-0.1v-0.1c0-1.2,0.3-7,11.5-8.2h0.2,0.2c8.2-0.7,13.1,0.7,15.7,1.9,0.2,0.1,4.9,2.7,3.4,6v0.1c-1,2.1-2.8,3.4-4.3,4.1-0.1,0.7-0.2,3,1.2,3.9,1.1,0.3,5.2,2.2,6.5,3.6,3.2-0.8,6.6,0.5,10,4.1,0.8,1.2,2.6,9.9,1.5,17-0.1,3.3-1.7,23.9-1.7,24.1l-0.1,13c0.8-0.4,2-0.7,2.9-0.1,2.4,1.7,3.2,1.5,3.4,1.2,0.1-0.2,3.1-3.2,6-2.8,1.3,0.2,2.3,0.9,3,2.3,1.1,2,2.3,3.1,3.3,3.2,0.9,0.1,1.6-0.7,1.8-1,0.9-1.2,4.6-3.3,5-3.5l0.3-0.2,0.3,0.2c0.5-0.5,1.3-0.2,1.6-0.1,0.2,0.1,0.6,0,0.9,0l0.8-0.9h1.1l1.8-21.6-0.9-0.1,0.1-3.3,0.9-0.4,1.5-20.1-0.5-0.6-0.1-3.8h0.5c0.1,0,8.2,0.5,14.1-1.5l0.7-0.2v1.1c2.3-1,9.9-4.4,12.5-6.4,1.2-1,2.1-1.8,2.8-2.6,1.1-1.1,1.9-2,3.4-2.5v-1.9s-0.5-5.6,6.1-7h0.2l0.2,0.1c4.3,0.4,6.8,2.8,7.2,6.5v0.1,0.1,1.8c1.2,0.6,6,3,10.4,7.6,0,0,3.8,3.1,11,4.7,6.1,0.8,11.5,0.8,11.5,0.8h0.4l0.5,3.5-1,1.3,5.2,45c0.4,0,1,0,1.6,0.1l0.3,0.1c0.9,0.2,1.6,0.3,2.3-0.2,0.3-0.2,0.5-0.4,0.6-0.5,0.2-0.2,0.5-0.4,0.9-0.3l2.1-1.8c2.3-1.4,4.3-1.8,6-1.3,1.4,0.4,2.3,1.5,2.6,2,1.6-0.1,7.1,0,9.2,0.1l1-1.1h3v-77.6h13.7v0.1l1.5,0.5v77.4l2.6,0.4c1.3-0.6,10.1-4.3,17.6,0.3,7.9,4.8,15.7,3.4,17.4,2,2.1-1.7,101.6-0.4,121.5-0.1v1c-32.6-0.4-118-1.3-120.9-0.1-2.3,1.8-10.8,2.8-18.5-1.9-7.5-4.6-16.7-0.2-16.8-0.2l-0.1,0.1-3.8-0.6v-77.6l-1-0.3h-12.2v77.1h-3.6l-1,1.1h-0.2c-3.4-0.1-9-0.2-9.6-0.1l-0.4,0.1-0.2-0.4s-0.6-1.3-2.2-1.8c-1.4-0.4-3.1,0-5.1,1.2l-2.6,2.2-0.3-0.2c-0.2,0.1-0.4,0.3-0.8,0.6-1,0.7-2,0.5-3,0.3l-0.3-0.1c-1-0.2-1.9-0.1-1.9-0.1h-0.5l-0.1-0.5-5.3-45.8,1-1.3-0.3-2.3c-1.4,0-6.1-0.1-11.3-0.8-7.5-1.7-11.4-4.9-11.5-5-4.8-5.1-10.3-7.5-10.4-7.5l-0.3-0.1v-0.3c-0.1-1.2-0.1-2,0-2.3-0.4-3.3-2.5-5.2-6.3-5.6h-0.1c-5.6,1.3-5.2,5.8-5.2,6v2.7l-0.4,0.1c-1.4,0.4-2.2,1.2-3.3,2.3-0.7,0.7-1.6,1.7-2.9,2.7-3.2,2.5-13.1,6.7-13.5,6.9l-0.7,0.3v-1.2c-5.1,1.6-11.4,1.5-13.2,1.4l0.1,2.4,0.5,0.6-1.5,21.1-0.9,0.4-0.1,1.8,1,0.1-1.9,23.4h-1.6l-0.8,0.8h-0.2c-0.2,0-1,0.2-1.6,0-0.4-0.2-0.5-0.1-0.5-0.1-0.3,0.3-0.6,0.3-0.9,0.2-1.2,0.7-3.9,2.3-4.5,3.1-0.2,0.9-1,1.8-2.3,1.8z" stroke-width="0.25" class="st0"/><circle stroke-width="0.25" d="m 1059.4,30.4 c 0,1.656854 -1.3431,3 -3,3 -1.6568,0 -3,-1.343146 -3,-3 0,-1.656855 1.3432,-3 3,-3 1.6569,0 3,1.343145 3,3 z" class="st0" cy="30.4" cx="1056.4" r="3"/><line stroke-width="0.25" y2="25.2" class="st0" y1="25.2" x2="1062.3" x1="1050.6"/><path d="m1058.1,96.3s-5.3,10.5-5.3,14.6" stroke-width="0.25" class="st0"/><path d="m1055,95.2s-8,7-9.8,14.2" stroke-width="0.25" class="st0"/><path d="m847.1,106.4h-1v-12c0-1.4,0.6-2.1,0.8-2.6,0.1-0.3,0.4-0.5,0.4-0.7,0-1,3.6-10.1,5.1-14,0.2-0.6,0.5-1.1,0.7-1.7,1.3-3.3,2.2-5.8,3.3-6.4,1.2-0.7,4.9-1.1,5.4-1.1l0.1,1c-1.1,0.1-4.1,0.5-4.9,1s-1.8,3.1-2.9,5.9c-0.2,0.5-0.4,1.1-0.7,1.7-2.9,7.4-4.9,13-4.9,13.6,0,0.4-0.4,0.8-0.6,1.2-0.2,0.5-0.7,1.1-0.7,2.2v11.9z" class="st1"/><path d="m896.6,104.2-0.9-0.3c0.2-0.6-0.2-5.8-0.3-8.1-0.1-1.2-0.1-2-0.1-2.3,0-0.4-0.8-2.8-1.6-5.3-1.2-3.9-2.9-9.1-4.1-13.5-1.9-7.2-5.3-7.2-5.3-7.2v-1c0.2,0,4.2,0,6.3,7.9,1.1,4.4,2.8,9.6,4.1,13.5,1.2,3.8,1.7,5.2,1.7,5.6,0,0.2,0.1,1.2,0.1,2.2,0.1,5,0.3,7.8,0.1,8.5z" stroke-width="0.25" class="st0"/><path d="M873.2,72.8c-8.2,0-14.2-2.8-14.2-2.8l0.4-0.9c0.1,0.1,13.1,6.2,27,0l0.4,0.9c-4.7,2.1-9.4,2.8-13.6,2.8z" stroke-width="0.25" class="st0"/><path d="m874.8,100.4h-1c0-3-0.1-10-0.4-11.4-0.4-1.8-2.9-15.9-3-16.5l1-0.2c0,0.1,2.6,14.7,3,16.5s0.4,11.6,0.4,11.6z" class="st1"/><path d="m877.5,100c0-0.1-0.1-7.1,0-10.1s3.1-17.8,3.2-18.4l1,0.2c0,0.2-3.1,15.3-3.2,18.2-0.1,3,0,10,0,10.1h-1z" stroke-width="0.25" class="st0"/><path d="m862.4,39.1-0.8-0.6c0.2-0.2,4.5-5.4,16.7-2.9l-0.2,1c-11.6-2.4-15.7,2.5-15.7,2.5z" stroke-width="0.25" class="st0"/><path d="m869.8,59.2h-0.8c-9.6-0.4-12.9-6.6-13-6.8l0.9-0.5c0,0.1,3.1,5.9,12.2,6.3,5.9,0.3,10.9-2.2,15-7.5l0.1-0.1c0.9-1.2,3.6-3.6,4.6-4.6l-1-0.8-0.1-0.1c-0.2-0.4-2.5-1.7-3.7-2.4-0.9-0.5-1.6-0.9-2.1-1.2-1.2-0.8-2.2-3.1-2.5-3.9-8.3-1.9-15,1.1-15.1,1.1l-0.4-0.9c0.3-0.1,7.2-3.2,16-1.1l0.3,0.1,0.1,0.3c0.3,0.8,1.2,3,2.2,3.6,0.4,0.3,1.2,0.7,2,1.2,2.2,1.3,3.7,2.1,4.1,2.8l1.8,1.4-0.4,0.4s-3.9,3.5-5,4.8l-0.1,0.1c-5.1,6.3-10.9,7.8-15.1,7.8z" stroke-width="0.25" class="st0"/><path d="m871.2,60.4c-7.5,0-11-2.5-11.2-2.6-0.6-0.4-5.7-4-6.4-6.5l1-0.3c0.5,1.8,4.5,4.9,6,5.9,0,0,3.7,2.6,11.4,2.4,6.2-0.1,11.2-5.4,13.7-8.5,0.1-0.1,0.2-0.2,0.2-0.2,0.4-0.5,4.2-4.7,4.2-4.7l0.7,0.7s-3.8,4.2-4.2,4.7c0,0-0.1,0.1-0.2,0.2-2.6,3.2-7.8,8.7-14.4,8.9-0.3-0.1-0.6,0-0.8,0z" stroke-width="0.25" class="st0"/><path d="m882.5,98.9c-0.5,0-1.2-0.1-2-0.2-2.7-0.5-3.3-0.1-3.3-0.1l-0.6-0.8c0.2-0.2,1.1-0.7,4.1-0.1,2.5,0.4,3,0,3,0l0.9,0.5c-0.2,0.2-0.6,0.7-2.1,0.7z" stroke-width="0.25" class="st0"/></g></svg>
