<?xml version="1.0" encoding="UTF-8" standalone="no"?>
<!-- Generator: Adobe Illustrator 19.1.0, SVG Export Plug-In . SVG Version: 6.00 Build 0)  -->

<svg
   xmlns:dc="http://purl.org/dc/elements/1.1/"
   xmlns:cc="http://creativecommons.org/ns#"
   xmlns:rdf="http://www.w3.org/1999/02/22-rdf-syntax-ns#"
   xmlns:svg="http://www.w3.org/2000/svg"
   xmlns="http://www.w3.org/2000/svg"
   xmlns:sodipodi="http://sodipodi.sourceforge.net/DTD/sodipodi-0.dtd"
   xmlns:inkscape="http://www.inkscape.org/namespaces/inkscape"
   version="1.1"
   id="Capa_1"
   x="0px"
   y="0px"
   viewBox="0 0 1224.1562 89.84375"
   xml:space="preserve"
   inkscape:version="0.48.5 r10040"
   width="100%"
   height="100%"
   sodipodi:docname="logo.svg"><metadata
     id="metadata149"><rdf:RDF><cc:Work
         rdf:about=""><dc:format>image/svg+xml</dc:format><dc:type
           rdf:resource="http://purl.org/dc/dcmitype/StillImage" /></cc:Work></rdf:RDF></metadata><defs
     id="defs147" /><sodipodi:namedview
     pagecolor="#ffffff"
     bordercolor="#666666"
     borderopacity="1"
     objecttolerance="10"
     gridtolerance="10"
     guidetolerance="10"
     inkscape:pageopacity="0"
     inkscape:pageshadow="2"
     inkscape:window-width="1366"
     inkscape:window-height="715"
     id="namedview145"
     showgrid="false"
     fit-margin-top="0"
     fit-margin-left="0"
     fit-margin-right="0"
     fit-margin-bottom="0"
     inkscape:zoom="0.63044393"
     inkscape:cx="578.51445"
     inkscape:cy="-23.194573"
     inkscape:window-x="0"
     inkscape:window-y="0"
     inkscape:window-maximized="1"
     inkscape:current-layer="Capa_1" /><style
     type="text/css"
     id="style3">
	.st0{fill:#E95810;stroke:#E95810;stroke-width:0.25;stroke-miterlimit:10;}
	.st1{fill:#E95810;stroke:#E95810;stroke-miterlimit:10;}
</style><g
     id="g3126"
     transform="translate(0.125,-21.687503)"><g
       id="g5"><g
         id="g7"><polygon
           id="polygon9"
           points="1061.6,102.9 1061.6,22.9 1062.6,22.9 1062.6,103.9 1055.6,103.9 1055.6,102.9 "
           class="st0"
           style="fill:#e95810;stroke:#e95810;stroke-width:0.25;stroke-miterlimit:10" /></g><g
         id="g11"><path
           id="path13"
           d="m 945.9,103.1 -1,-0.1 2.4,-26 4.4,-0.4 c 4,-2.5 6.1,-6.6 6.9,-8.3 l 0.1,-0.3 c 0.8,-1.6 4.1,-4 4.7,-4.4 0.2,-0.3 1.4,-1.9 1.8,-2.8 0.3,-0.6 1,-1.8 1.7,-2.9 0.4,-0.7 0.8,-1.3 0.9,-1.6 0.1,-0.2 0.4,-0.7 5.4,-5.1 -0.8,-0.9 -1.2,-1.8 -1.1,-2.7 0.2,-1.3 1.5,-2.1 1.8,-2.3 l 0.4,-0.4 h 3.8 l 0.1,0.3 c 0,0 0.1,0.2 0.2,0.4 0.9,0.2 1.5,0.6 1.7,1.3 0.5,1.2 -0.3,2.8 -0.8,3.6 0.1,0 0.2,0.1 0.3,0.2 0.9,0.5 1.4,0.9 1.7,1.1 0.4,-0.4 1,-0.8 2,-0.3 l 0.2,0.1 0.1,0.2 c 0.4,0.7 0.1,1.4 -0.3,1.8 0.6,0.9 2.3,3.2 2.8,4.5 0.6,1.5 4.3,6.1 5.5,6.7 1,0.5 2.1,2.5 3.5,5 0.5,0.9 1,1.7 1.2,2.1 0.7,0.8 3.6,3.3 4.2,3.8 l 4.2,0 2.9,24 -1,0.1 -2.8,-23.2 -3.7,0 -0.1,-0.1 c -0.1,-0.1 -3.7,-3 -4.5,-4.1 -0.3,-0.4 -0.8,-1.2 -1.3,-2.2 -0.9,-1.7 -2.4,-4.2 -3.1,-4.6 -1.6,-0.8 -5.3,-5.7 -6,-7.2 -0.6,-1.5 -2.9,-4.6 -2.9,-4.6 l -0.3,-0.4 0.3,-0.3 c 0,0 0.5,-0.5 0.4,-0.8 -0.3,-0.1 -0.6,-0.1 -0.9,0.4 l -0.5,0.8 -0.4,-0.8 c -0.3,-0.2 -1.5,-1 -2,-1.2 -0.2,-0.1 -0.4,-0.2 -0.4,-0.3 -0.2,-0.1 -0.3,-0.3 -0.4,-0.3 l -0.3,-0.3 0.2,-0.3 c 0.4,-0.5 1.3,-2.1 0.9,-3 -0.1,-0.4 -0.5,-0.6 -1.1,-0.7 h 0 c -0.3,0 -0.5,-0.2 -0.7,-0.7 h -2.7 L 974,47 c 0,0 -1.2,0.6 -1.3,1.6 -0.1,0.7 0.3,1.4 1.2,2.2 l 0.4,0.4 -0.4,0.4 c 0,0 -0.1,0.1 -0.2,0.1 -4.8,4.2 -5.4,5 -5.4,5.1 -0.2,0.3 -0.5,0.9 -1,1.6 -0.6,1 -1.3,2.2 -1.6,2.8 -0.5,1.1 -1.9,3 -1.9,3 l -0.1,0.1 c -1,0.7 -3.8,2.8 -4.4,4 l -0.1,0.3 c -0.9,1.8 -3,6.1 -7.4,8.8 l -0.1,0.1 -3.8,0.3 -2,25.3 z"
           class="st0"
           inkscape:connector-curvature="0"
           style="fill:#e95810;stroke:#e95810;stroke-width:0.25;stroke-miterlimit:10" /></g><g
         id="g15"><path
           id="path17"
           d="m 949.6,100.8 -1,0 0.9,-20 0.4,0 c 0.9,-0.1 2.4,-0.3 2.7,-0.4 0.5,-0.2 4.7,-2.8 5.6,-4.7 0.9,-2.1 2.3,-4 4.1,-5.5 1.1,-0.9 1.5,-1.6 2.1,-2.6 0.3,-0.5 0.6,-1 1.1,-1.6 1.1,-1.6 2.4,-4.2 2.8,-4.9 -0.1,-0.3 -0.3,-0.9 0,-1.4 0.4,-0.6 1.3,-0.6 1.7,-0.5 0.5,-0.3 1.7,-0.9 2.3,-1.2 v -2 h 4.2 v 2 c 1,0.8 4.8,4 5.4,5.1 0.7,1.4 4.8,7.2 5.7,7.6 1.4,0.7 3.8,4.9 4.3,5.9 0.6,1.3 5,3 6.1,3.3 0.4,0.1 1.2,0.3 2.4,20.6 l -1,0.1 c -0.4,-7 -1.2,-18.3 -1.8,-19.7 -1.1,-0.4 -5.7,-2.1 -6.5,-3.7 -1,-2 -3,-5 -3.8,-5.5 -1.3,-0.6 -5.6,-7 -6.1,-8.1 -0.4,-0.8 -3.5,-3.5 -5.3,-5 l -0.2,-0.1 V 57 h -2.2 v 1.6 l -0.3,0.1 c 0,0 -2.2,1.2 -2.7,1.5 l -0.1,0.1 -0.2,0 c -0.7,-0.1 -0.9,0 -0.9,0.1 -0.1,0.1 0,0.4 0.1,0.6 l 0.1,0.2 -0.1,0.2 c -0.1,0.1 -1.6,3.4 -3,5.3 -0.4,0.6 -0.8,1.1 -1,1.6 -0.7,1 -1.2,1.8 -2.3,2.8 -1.6,1.4 -2.9,3.1 -3.8,5.1 -1,2.3 -5.5,5 -6.1,5.3 -0.5,0.2 -1.8,0.4 -2.6,0.5 l -1,18.8 z"
           class="st0"
           inkscape:connector-curvature="0"
           style="fill:#e95810;stroke:#e95810;stroke-width:0.25;stroke-miterlimit:10" /></g><g
         id="g19"><path
           id="path21"
           d="m 976.9,30.8 h -1 v -2.1 c 0,-0.4 -0.1,-0.8 -0.4,-1.1 -0.3,-0.3 -0.7,-0.4 -1.2,-0.3 -0.9,0.1 -0.9,1.7 -0.9,1.8 v 1.5 h -1 v -1.5 c 0,-0.9 0.3,-2.6 1.8,-2.8 1,-0.1 1.6,0.2 2,0.6 0.5,0.4 0.7,1.1 0.7,1.8 v 2.1 z"
           class="st0"
           inkscape:connector-curvature="0"
           style="fill:#e95810;stroke:#e95810;stroke-width:0.25;stroke-miterlimit:10" /></g><g
         id="g23"><rect
           id="rect25"
           height="2.5"
           width="1"
           class="st0"
           y="23.9"
           x="974.20001"
           style="fill:#e95810;stroke:#e95810;stroke-width:0.25;stroke-miterlimit:10" /></g><g
         id="g27"><rect
           id="rect29"
           height="1"
           width="2.5"
           class="st0"
           y="24.700001"
           x="973.5"
           style="fill:#e95810;stroke:#e95810;stroke-width:0.25;stroke-miterlimit:10" /></g><g
         id="g31"><polygon
           id="polygon33"
           points="948,56.8 948,53.8 949,53.8 949,57.8 948.3,57.8 947.7,75.4 946.7,75.4 947.3,56.8 "
           class="st0"
           style="fill:#e95810;stroke:#e95810;stroke-width:0.25;stroke-miterlimit:10" /></g><g
         id="g35"><polygon
           id="polygon37"
           points="1001.4,54.4 1002.4,54.3 1002.7,56.4 1003.5,56.9 1004.9,75.9 1003.9,75.9 1002.6,57.5 1001.8,57 "
           class="st0"
           style="fill:#e95810;stroke:#e95810;stroke-width:0.25;stroke-miterlimit:10" /></g><g
         id="g39"><path
           id="path41"
           d="m 943.9,75.9 h -7.5 l 1,-16.8 c 0.1,-0.1 1.4,-2.5 4.4,-2.5 0.2,0 3.3,0.3 3.4,2.6 0,2.1 -0.6,13.7 -0.6,14.2 l -1,-0.1 c 0,-0.1 0.6,-12.1 0.6,-14.2 -0.1,-1.3 -2.4,-1.6 -2.5,-1.6 -2.1,0 -3.2,1.5 -3.4,1.9 l -0.9,15.5 h 6.5 v 1 z"
           class="st0"
           inkscape:connector-curvature="0"
           style="fill:#e95810;stroke:#e95810;stroke-width:0.25;stroke-miterlimit:10" /></g><g
         id="g43"><path
           id="path45"
           d="m 935.6,101.8 -1,-0.1 1.4,-18.5 c 0.1,-0.1 1.4,-2.7 4.1,-2.7 2.7,0 3.7,1.8 3.7,2.6 0,0.5 -0.8,17.5 -0.8,18.2 l -1,0 c 0.3,-6.1 0.8,-17.8 0.8,-18.2 0,-0.3 -0.5,-1.6 -2.7,-1.6 -1.9,0 -3,1.6 -3.2,2 l -1.3,18.3 z"
           class="st0"
           inkscape:connector-curvature="0"
           style="fill:#e95810;stroke:#e95810;stroke-width:0.25;stroke-miterlimit:10" /></g><g
         id="g47"><path
           id="path49"
           d="m 1016,99.7 -2.2,-16.8 c 0,0 -0.8,-2.3 -3.3,-2.3 -0.1,0 -2,0.3 -1.7,2.4 0.3,2.7 1.8,15.7 1.8,15.7 l -1,0.1 c 0,0 -1.5,-13 -1.8,-15.7 -0.3,-2.5 1.6,-3.4 2.7,-3.6 0,0 0,0 0,0 2.7,0 4,2 4.4,3.1 l 2.2,16.9 -1.1,0.2 z"
           class="st0"
           inkscape:connector-curvature="0"
           style="fill:#e95810;stroke:#e95810;stroke-width:0.25;stroke-miterlimit:10" /></g><g
         id="g51"><path
           id="path53"
           d="m 1013.6,75.2 -2.2,-16.8 c 0,0 -0.8,-2.3 -3.3,-2.3 -0.1,0 -2,0.3 -1.7,2.4 0.3,2.7 1.8,15.7 1.8,15.7 l -1,0.1 c 0,0 -1.5,-13 -1.8,-15.7 -0.3,-2.5 1.6,-3.4 2.7,-3.6 0,0 0,0 0,0 2.7,0 4,2 4.4,3.1 l 2.2,16.9 -1.1,0.2 z"
           class="st0"
           inkscape:connector-curvature="0"
           style="fill:#e95810;stroke:#e95810;stroke-width:0.25;stroke-miterlimit:10" /></g><g
         id="g55"><path
           id="path57"
           d="m 967.5,54.1 c -1.7,-3 -1.2,-6.3 1.3,-8.8 2.5,-2.6 7.3,-4.3 11.2,-2.2 2.8,1.5 4.7,3.8 5.2,6.5 l -1,0.2 c -0.5,-2.4 -2.2,-4.5 -4.7,-5.8 -3.5,-1.8 -7.8,-0.3 -10.1,2 -2.2,2.2 -2.6,5 -1.1,7.6 l -0.8,0.5 z"
           class="st0"
           inkscape:connector-curvature="0"
           style="fill:#e95810;stroke:#e95810;stroke-width:0.25;stroke-miterlimit:10" /></g><g
         id="g59"><path
           id="path61"
           d="m 985.6,54.5 c -0.4,-1.7 -1.2,-2.8 -2.3,-3.3 -1.6,-0.8 -3.4,0 -3.4,0 l -0.4,-0.9 c 0.1,0 2.2,-1 4.3,0 1.4,0.6 2.3,2 2.8,4 l -1,0.2 z"
           class="st0"
           inkscape:connector-curvature="0"
           style="fill:#e95810;stroke:#e95810;stroke-width:0.25;stroke-miterlimit:10" /></g></g><g
       id="g63"><polygon
         id="polygon65"
         points="819.2,90.5 817.6,91.9 820.7,111.3 819.8,111.4 816.5,91.5 818.6,89.8 "
         class="st0"
         style="fill:#e95810;stroke:#e95810;stroke-width:0.25;stroke-miterlimit:10" /></g><g
       id="g67"><path
         id="path69"
         d="m 744.5,102.7 -0.5,-0.9 c 15.4,-8.1 49.1,-16.3 49.4,-16.4 l 0.2,1 c -0.3,0.1 -33.8,8.3 -49.1,16.3 z"
         class="st0"
         inkscape:connector-curvature="0"
         style="fill:#e95810;stroke:#e95810;stroke-width:0.25;stroke-miterlimit:10" /></g><g
       id="g71"><rect
         id="rect73"
         height="1"
         width="52.799999"
         class="st0"
         transform="matrix(0.9775,0.2111,-0.2111,0.9775,36.6494,-145.0326)"
         y="98.699997"
         x="671.29999"
         style="fill:#e95810;stroke:#e95810;stroke-width:0.25;stroke-miterlimit:10" /></g><g
       id="g75"><path
         id="path77"
         d="m 746.6,99.3 -1,-0.3 c 3.1,-9.4 18.1,-26.4 18.8,-27.1 l 0.2,-0.2 0.3,0.1 c 2.2,0.6 19.8,13.2 21.8,14.6 l -0.6,0.8 C 778.7,81.9 767.3,73.9 764.9,72.9 763.1,75 749.4,90.7 746.6,99.3 z"
         class="st0"
         inkscape:connector-curvature="0"
         style="fill:#e95810;stroke:#e95810;stroke-width:0.25;stroke-miterlimit:10" /></g><g
       id="g79"><rect
         id="rect81"
         height="25.5"
         width="1"
         class="st0"
         transform="matrix(0.9248,0.3805,-0.3805,0.9248,89.5493,-276.2982)"
         y="75.599998"
         x="743.20001"
         style="fill:#e95810;stroke:#e95810;stroke-width:0.25;stroke-miterlimit:10" /></g><g
       id="g83"><rect
         id="rect85"
         height="1"
         width="23.200001"
         class="st0"
         transform="matrix(0.02746066,0.9996,-0.9996,0.02746066,773.4514,-727.6245)"
         y="33.200001"
         x="749.09998"
         style="fill:#e95810;stroke:#e95810;stroke-width:0.25;stroke-miterlimit:10" /></g><g
       id="g87"><rect
         id="rect89"
         height="1"
         width="6.0999999"
         class="st0"
         y="30.700001"
         x="757.59998"
         style="fill:#e95810;stroke:#e95810;stroke-width:0.25;stroke-miterlimit:10" /></g><path
       id="path91"
       d="M 1089.5,109.4"
       class="st0"
       inkscape:connector-curvature="0"
       style="fill:#e95810;stroke:#e95810;stroke-width:0.25;stroke-miterlimit:10" /><g
       id="g93"><path
         id="path95"
         d="M 823.1,42.4"
         class="st0"
         inkscape:connector-curvature="0"
         style="fill:#e95810;stroke:#e95810;stroke-width:0.25;stroke-miterlimit:10" /></g><g
       id="g97"><path
         id="path99"
         d="m 919.9,108 c -0.1,0 -0.1,0 -0.2,0 -1.4,-0.1 -2.8,-1.4 -4.1,-3.7 -0.6,-1.1 -1.4,-1.7 -2.3,-1.8 -2.4,-0.3 -5.1,2.5 -5.1,2.5 -1.2,1.4 -3.8,-0.4 -4.7,-1 -0.8,-0.5 -2.1,0.2 -2.6,0.5 l -0.8,0.6 0.2,-14.9 c 0,-0.2 1.6,-20.8 1.7,-24.1 1.2,-7.6 -0.9,-15.5 -1.2,-16.3 -3.1,-3.2 -6.2,-4.5 -9,-3.7 -0.3,0.1 -0.5,0.1 -0.8,-0.1 -0.9,-1.3 -5.7,-3.5 -6.2,-3.6 h -0.1 l 0,-0.1 c -2.3,-1.4 -1.7,-5 -1.6,-5.2 l 0,-0.3 0.2,-0.1 c 1.4,-0.6 3.2,-1.8 4,-3.7 0,-0.1 0,-0.1 0.1,-0.1 1.1,-2.5 -2.9,-4.6 -3,-4.7 -2.5,-1.2 -7.2,-2.5 -15.2,-1.8 -0.2,0 -0.3,0.1 -0.4,0 -10.1,1.2 -10.6,6.2 -10.6,7.1 0.9,1.5 2.1,2.4 3,2.8 l -0.4,-1 1.8,1.8 0,0.1 c 0.5,1.5 -0.1,3.5 -0.4,4.5 h 1.9 l -2.4,1 c -3.7,1.5 -6.2,3.7 -6.7,4.3 v 0.3 l -0.5,0 c -0.1,0 -0.2,0 -0.2,0 -5.6,0 -8.4,2.2 -9,2.9 l 0,0 -0.2,0.3 c -1.9,2.3 -1.8,16 -1.7,21.1 v 35.5 l -0.7,-0.4 c 0,0 -0.6,-0.3 -1.3,-0.1 l -0.4,0.1 c -0.4,0.1 -0.5,0.1 -0.9,0 -0.1,0 -0.2,-0.1 -0.3,-0.1 -0.3,-0.1 -0.5,-0.2 -0.7,-0.2 -0.2,-0.1 -0.4,-0.1 -0.7,-0.2 -0.4,-0.1 -0.8,0.3 -0.8,0.3 l -0.4,0.4 -0.4,-0.4 c 0,-0.1 -1.1,-1.3 -2.1,-3.5 -0.5,-1.2 -0.8,-1.6 -0.9,-1.8 -0.4,0 -0.7,0 -1,0.1 -0.5,0.1 -1.2,0.3 -1.7,-0.5 -0.5,-0.9 -1.7,-7.5 -1.9,-8.8 l -0.1,-0.3 1.3,-1.1 c 0,-0.2 0,-0.4 0,-0.5 -2.1,-0.9 -5.6,-0.8 -10.7,0.4 -0.6,0.1 -0.7,0.2 -1,0 l -0.2,-0.2 0.1,-0.3 c 0.7,-1.8 0.4,-3 0.3,-3.3 -5.2,-4.4 -24.8,-0.3 -25,-0.2 l -0.1,0 -0.1,0 c -12.5,-3.1 -26.6,-12.8 -28,-25 -0.4,-3.3 -0.2,-6.3 0,-9.5 l 0.1,-1.1 c 0,-0.8 0.7,-2.5 0.9,-3.1 -0.2,-0.2 -1,-0.6 -1.7,-0.8 l -0.4,-0.1 0,-0.4 c 0,-0.1 0,-0.1 0,-0.2 -3,-1 -5.8,-0.3 -6.6,0 l 1.2,0.9 -1.7,-0.1 c -0.4,0 -1.1,0.4 -1.7,0.9 0.3,0.7 0.9,2.3 1,2.7 0,0.1 0.8,5.6 0.5,7.2 l 0.1,0 c 0.1,10.3 -4.8,18.3 -13.9,22.5 -11,5.1 -23.8,8.3 -40.3,9.9 -7.8,0.8 -18.1,0.5 -18.2,0.5 -0.1,0 -8,-1.3 -9.4,-1.5 -0.8,-0.1 -1.3,0.4 -1.6,0.7 0.4,0.2 1,0.4 1.6,0.6 l 0.4,0.1 0,0.4 c 0,0 -0.1,1 -0.1,1.1 0,0.1 0,0.1 -1.1,6 -0.5,2.7 -1.1,5.7 -1.1,5.9 v 0.3 l -0.2,0.1 c -0.1,0.1 -10.6,6.4 -20,0.8 -9,-5.4 -25,-7.4 -33.5,-1.7 l -0.1,0.1 H 0 v -1 h 619.3 c 8.9,-5.9 25,-3.9 34.4,1.7 8.2,4.9 17.3,0.1 18.8,-0.7 0.1,-0.5 0.4,-1.9 1.1,-5.7 0.5,-2.7 1.1,-5.7 1.1,-5.8 0,0 0,-0.4 0.1,-0.7 -2,-0.7 -2.1,-1 -2.1,-1.4 0.1,-0.6 1.2,-1.9 2.8,-1.7 1.4,0.2 9,1.4 9.3,1.5 0,0 0,0 0,0 0.1,0 10.2,0.3 18,-0.5 16.4,-1.6 29.1,-4.8 39.9,-9.8 8.7,-4.1 13.5,-11.8 13.4,-21.6 l 0,-0.3 0,0 c -0.1,-1.3 -0.4,-6 -0.5,-6.5 -0.2,-0.5 -1.2,-3.1 -1.2,-3.1 l -0.1,-0.3 0.3,-0.2 c 0.2,-0.2 1.2,-1 2,-1.2 0,-0.2 0.1,-0.4 0.1,-0.5 l 0.1,-0.2 0.2,-0.1 c 0.2,-0.1 3.8,-1.5 7.9,0 l 0.2,0.1 c 0.1,0.1 0.2,0.3 0.2,0.6 0.8,0.2 2.1,0.8 2.1,1.6 l 0,0.1 0,0.1 c -0.2,0.6 -0.8,2.3 -0.9,2.9 l -0.1,1.1 c -0.2,3.2 -0.4,6.2 0,9.4 1.4,11.6 15,21.1 27.1,24.1 1.8,-0.4 20.6,-4.1 25.9,0.6 l 0.1,0.1 c 0,0.1 0.6,1.3 0.1,3.3 5.3,-1.2 9.1,-1.3 11.3,-0.1 l 0.2,0.1 0.1,0.2 c 0,0.1 0,0.2 0,1.2 l 0,0.2 -1.2,1.1 c 0.6,3.2 1.5,7.7 1.8,8.2 0.1,0.1 0.1,0.2 0.6,0 0.4,-0.1 0.8,-0.2 1.4,-0.1 0.4,0 0.8,0.5 1.7,2.4 0.6,1.3 1.2,2.3 1.6,2.8 0.4,-0.2 0.9,-0.4 1.4,-0.2 0.3,0.1 0.5,0.2 0.7,0.2 0.2,0.1 0.4,0.1 0.7,0.2 0.1,0 0.2,0.1 0.3,0.1 0.1,0 0.1,0 0.1,0 0,0 0.1,0 0.2,-0.1 l 0.5,-0.1 c 0.5,-0.1 1,-0.1 1.3,0 v -34 c -0.1,-1.9 -0.5,-18.4 1.8,-21.6 0,0 0,-0.1 0.1,-0.1 0.6,-0.9 3.6,-3.6 10,-3.5 0.9,-1 3.5,-3.1 6.8,-4.4 0,0 0,-0.1 0,-0.1 0.2,-0.7 0.8,-2.8 0.5,-4.2 -1,-0.4 -3.1,-1.6 -4.4,-3.8 L 857,33.9 v -0.1 c 0,-1.2 0.3,-7 11.5,-8.2 l 0.2,0 0,0 c 0.1,0 0.1,0 0.2,0 8.2,-0.7 13.1,0.7 15.7,1.9 0.2,0.1 4.9,2.7 3.4,6 l 0,0.1 c -1,2.1 -2.8,3.4 -4.3,4.1 -0.1,0.7 -0.2,3 1.2,3.9 1.1,0.3 5.2,2.2 6.5,3.6 3.2,-0.8 6.6,0.5 10,4.1 l 0,0 c 0.8,1.2 2.6,9.9 1.5,17 -0.1,3.3 -1.7,23.9 -1.7,24.1 l -0.1,13 c 0.8,-0.4 2,-0.7 2.9,-0.1 2.4,1.7 3.2,1.5 3.4,1.2 0.1,-0.2 3.1,-3.2 6,-2.8 1.3,0.2 2.3,0.9 3,2.3 1.1,2 2.3,3.1 3.3,3.2 0.9,0.1 1.6,-0.7 1.8,-1 0.9,-1.2 4.6,-3.3 5,-3.5 l 0.3,-0.2 0.3,0.2 c 0.5,-0.5 1.3,-0.2 1.6,-0.1 0.2,0.1 0.6,0 0.9,0 l 0.8,-0.9 h 1.1 l 1.8,-21.6 -0.9,-0.1 0.1,-3.3 0.9,-0.4 1.5,-20.1 -0.5,-0.6 -0.1,-3.8 0.5,0 c 0.1,0 8.2,0.5 14.1,-1.5 l 0.7,-0.2 v 1.1 c 2.3,-1 9.9,-4.4 12.5,-6.4 1.2,-1 2.1,-1.8 2.8,-2.6 1.1,-1.1 1.9,-2 3.4,-2.5 v -1.9 c 0,0 -0.5,-5.6 6.1,-7 l 0.2,0 0.2,0.1 c 4.3,0.4 6.8,2.8 7.2,6.5 l 0,0.1 0,0.1 c 0,0.1 0,1 0,1.8 1.2,0.6 6,3 10.4,7.6 l 0,0 c 0,0 3.8,3.1 11,4.7 6.1,0.8 11.5,0.8 11.5,0.8 h 0.4 l 0.5,3.5 -1,1.3 5.2,45 c 0.4,0 1,0 1.6,0.1 l 0.3,0.1 c 0.9,0.2 1.6,0.3 2.3,-0.2 0.3,-0.2 0.5,-0.4 0.6,-0.5 0.2,-0.2 0.5,-0.4 0.9,-0.3 l 2.1,-1.8 c 2.3,-1.4 4.3,-1.8 6,-1.3 1.4,0.4 2.3,1.5 2.6,2 1.6,-0.1 7.1,0 9.2,0.1 l 1,-1.1 h 3 V 21.8 h 13.7 l 0,0.1 1.5,0.5 v 77.4 l 2.6,0.4 c 1.3,-0.6 10.1,-4.3 17.6,0.3 7.9,4.8 15.7,3.4 17.4,2 2.1,-1.7 101.6,-0.4 121.5,-0.1 l 0,1 c -32.6,-0.4 -118,-1.3 -120.9,-0.1 -2.3,1.8 -10.8,2.8 -18.5,-1.9 -7.5,-4.6 -16.7,-0.2 -16.8,-0.2 l -0.1,0.1 -3.8,-0.6 V 23.1 l -1,-0.3 h -12.2 v 77.1 h -3.6 l -1,1.1 -0.2,0 c -3.4,-0.1 -9,-0.2 -9.6,-0.1 l -0.4,0.1 -0.2,-0.4 c 0,0 -0.6,-1.3 -2.2,-1.8 -1.4,-0.4 -3.1,0 -5.1,1.2 l -2.6,2.2 -0.3,-0.2 c 0,0 0,0 0,0 -0.2,0.1 -0.4,0.3 -0.8,0.6 -1,0.7 -2,0.5 -3,0.3 l -0.3,-0.1 c -1,-0.2 -1.9,-0.1 -1.9,-0.1 l -0.5,0 -0.1,-0.5 -5.3,-45.8 1,-1.3 -0.3,-2.3 c -1.4,0 -6.1,-0.1 -11.3,-0.8 -7.5,-1.7 -11.4,-4.9 -11.5,-5 -4.8,-5.1 -10.3,-7.5 -10.4,-7.5 l -0.3,-0.1 0,-0.3 c -0.1,-1.2 -0.1,-2 0,-2.3 -0.4,-3.3 -2.5,-5.2 -6.3,-5.6 -0.1,0 -0.1,0 -0.1,0 -5.6,1.3 -5.2,5.8 -5.2,6 l 0,2.7 -0.4,0.1 c -1.4,0.4 -2.2,1.2 -3.3,2.3 -0.7,0.7 -1.6,1.7 -2.9,2.7 -3.2,2.5 -13.1,6.7 -13.5,6.9 l -0.7,0.3 V 51 c -5.1,1.6 -11.4,1.5 -13.2,1.4 l 0.1,2.4 0.5,0.6 -1.5,21.1 -0.9,0.4 -0.1,1.8 1,0.1 -1.9,23.4 h -1.6 l -0.8,0.8 -0.2,0 c -0.2,0 -1,0.2 -1.6,0 -0.4,-0.2 -0.5,-0.1 -0.5,-0.1 -0.3,0.3 -0.6,0.3 -0.9,0.2 -1.2,0.7 -3.9,2.3 -4.5,3.1 -0.2,0.9 -1,1.8 -2.3,1.8 z"
         class="st0"
         inkscape:connector-curvature="0"
         style="fill:#e95810;stroke:#e95810;stroke-width:0.25;stroke-miterlimit:10" /></g><circle
       id="circle101"
       r="3"
       cy="30.4"
       cx="1056.4"
       class="st0"
       sodipodi:cx="1056.4"
       sodipodi:cy="30.4"
       sodipodi:rx="3"
       sodipodi:ry="3"
       style="fill:#e95810;stroke:#e95810;stroke-width:0.25;stroke-miterlimit:10"
       d="m 1059.4,30.4 c 0,1.656854 -1.3431,3 -3,3 -1.6568,0 -3,-1.343146 -3,-3 0,-1.656855 1.3432,-3 3,-3 1.6569,0 3,1.343145 3,3 z" /><line
       id="line103"
       y2="25.200001"
       x2="1062.3"
       y1="25.200001"
       x1="1050.6"
       class="st0"
       style="fill:#e95810;stroke:#e95810;stroke-width:0.25;stroke-miterlimit:10" /><path
       id="path105"
       d="m 1058.1,96.3 c 0,0 -5.3,10.5 -5.3,14.6"
       class="st0"
       inkscape:connector-curvature="0"
       style="fill:#e95810;stroke:#e95810;stroke-width:0.25;stroke-miterlimit:10" /><path
       id="path107"
       d="m 1055,95.2 c 0,0 -8,7 -9.8,14.2"
       class="st0"
       inkscape:connector-curvature="0"
       style="fill:#e95810;stroke:#e95810;stroke-width:0.25;stroke-miterlimit:10" /><g
       id="g109"><path
         id="path111"
         d="m 847.1,106.4 h -1 v -12 c 0,-1.4 0.6,-2.1 0.8,-2.6 0.1,-0.3 0.4,-0.5 0.4,-0.7 0,-1 3.6,-10.1 5.1,-14 0.2,-0.6 0.5,-1.1 0.7,-1.7 1.3,-3.3 2.2,-5.8 3.3,-6.4 1.2,-0.7 4.9,-1.1 5.4,-1.1 l 0.1,1 c -1.1,0.1 -4.1,0.5 -4.9,1 -0.8,0.5 -1.8,3.1 -2.9,5.9 -0.2,0.5 -0.4,1.1 -0.7,1.7 -2.9,7.4 -4.9,13 -4.9,13.6 0,0.4 -0.4,0.8 -0.6,1.2 -0.2,0.5 -0.7,1.1 -0.7,2.2 v 11.9 z"
         class="st1"
         inkscape:connector-curvature="0"
         style="fill:#e95810;stroke:#e95810;stroke-miterlimit:10" /></g><g
       id="g113"><path
         id="path115"
         d="m 896.6,104.2 -0.9,-0.3 c 0.2,-0.6 -0.2,-5.8 -0.3,-8.1 -0.1,-1.2 -0.1,-2 -0.1,-2.3 0,-0.4 -0.8,-2.8 -1.6,-5.3 -1.2,-3.9 -2.9,-9.1 -4.1,-13.5 -1.9,-7.2 -5.3,-7.2 -5.3,-7.2 l 0,-1 c 0.2,0 4.2,0 6.3,7.9 1.1,4.4 2.8,9.6 4.1,13.5 1.2,3.8 1.7,5.2 1.7,5.6 0,0.2 0.1,1.2 0.1,2.2 0.1,5 0.3,7.8 0.1,8.5 z"
         class="st0"
         inkscape:connector-curvature="0"
         style="fill:#e95810;stroke:#e95810;stroke-width:0.25;stroke-miterlimit:10" /></g><g
       id="g117"><path
         id="path119"
         d="M 873.2,72.8 C 865,72.8 859,70 859,70 l 0.4,-0.9 c 0.1,0.1 13.1,6.2 27,0 l 0.4,0.9 c -4.7,2.1 -9.4,2.8 -13.6,2.8 z"
         class="st0"
         inkscape:connector-curvature="0"
         style="fill:#e95810;stroke:#e95810;stroke-width:0.25;stroke-miterlimit:10" /></g><g
       id="g121"><path
         id="path123"
         d="m 874.8,100.4 h -1 c 0,-3 -0.1,-10 -0.4,-11.4 -0.4,-1.8 -2.9,-15.9 -3,-16.5 l 1,-0.2 c 0,0.1 2.6,14.7 3,16.5 0.4,1.8 0.4,11.6 0.4,11.6 z"
         class="st1"
         inkscape:connector-curvature="0"
         style="fill:#e95810;stroke:#e95810;stroke-miterlimit:10" /></g><g
       id="g125"><path
         id="path127"
         d="m 877.5,100 c 0,-0.1 -0.1,-7.1 0,-10.1 0.1,-3 3.1,-17.8 3.2,-18.4 l 1,0.2 c 0,0.2 -3.1,15.3 -3.2,18.2 -0.1,3 0,10 0,10.1 l -1,0 z"
         class="st0"
         inkscape:connector-curvature="0"
         style="fill:#e95810;stroke:#e95810;stroke-width:0.25;stroke-miterlimit:10" /></g><g
       id="g129"><path
         id="path131"
         d="m 862.4,39.1 -0.8,-0.6 c 0.2,-0.2 4.5,-5.4 16.7,-2.9 l -0.2,1 c -11.6,-2.4 -15.7,2.5 -15.7,2.5 z"
         class="st0"
         inkscape:connector-curvature="0"
         style="fill:#e95810;stroke:#e95810;stroke-width:0.25;stroke-miterlimit:10" /></g><g
       id="g133"><path
         id="path135"
         d="m 869.8,59.2 c -0.3,0 -0.6,0 -0.8,0 -9.6,-0.4 -12.9,-6.6 -13,-6.8 l 0.9,-0.5 c 0,0.1 3.1,5.9 12.2,6.3 5.9,0.3 10.9,-2.2 15,-7.5 l 0.1,-0.1 c 0.9,-1.2 3.6,-3.6 4.6,-4.6 l -1,-0.8 -0.1,-0.1 c -0.2,-0.4 -2.5,-1.7 -3.7,-2.4 -0.9,-0.5 -1.6,-0.9 -2.1,-1.2 -1.2,-0.8 -2.2,-3.1 -2.5,-3.9 -8.3,-1.9 -15,1.1 -15.1,1.1 l -0.4,-0.9 c 0.3,-0.1 7.2,-3.2 16,-1.1 l 0.3,0.1 0.1,0.3 c 0.3,0.8 1.2,3 2.2,3.6 0.4,0.3 1.2,0.7 2,1.2 2.2,1.3 3.7,2.1 4.1,2.8 l 1.8,1.4 -0.4,0.4 c 0,0 -3.9,3.5 -5,4.8 l -0.1,0.1 c -5.1,6.3 -10.9,7.8 -15.1,7.8 z"
         class="st0"
         inkscape:connector-curvature="0"
         style="fill:#e95810;stroke:#e95810;stroke-width:0.25;stroke-miterlimit:10" /></g><g
       id="g137"><path
         id="path139"
         d="m 871.2,60.4 c -7.5,0 -11,-2.5 -11.2,-2.6 -0.6,-0.4 -5.7,-4 -6.4,-6.5 l 1,-0.3 c 0.5,1.8 4.5,4.9 6,5.9 0,0 3.7,2.6 11.4,2.4 6.2,-0.1 11.2,-5.4 13.7,-8.5 0.1,-0.1 0.2,-0.2 0.2,-0.2 0.4,-0.5 4.2,-4.7 4.2,-4.7 l 0.7,0.7 c 0,0 -3.8,4.2 -4.2,4.7 0,0 -0.1,0.1 -0.2,0.2 -2.6,3.2 -7.8,8.7 -14.4,8.9 -0.3,-0.1 -0.6,0 -0.8,0 z"
         class="st0"
         inkscape:connector-curvature="0"
         style="fill:#e95810;stroke:#e95810;stroke-width:0.25;stroke-miterlimit:10" /></g><g
       id="g141"><path
         id="path143"
         d="m 882.5,98.9 c -0.5,0 -1.2,-0.1 -2,-0.2 -2.7,-0.5 -3.3,-0.1 -3.3,-0.1 l -0.6,-0.8 c 0.2,-0.2 1.1,-0.7 4.1,-0.1 2.5,0.4 3,0 3,0 l 0.9,0.5 c -0.2,0.2 -0.6,0.7 -2.1,0.7 z"
         class="st0"
         inkscape:connector-curvature="0"
         style="fill:#e95810;stroke:#e95810;stroke-width:0.25;stroke-miterlimit:10" /></g></g></svg>